<svg xmlns="http://www.w3.org/2000/svg" viewBox="0 0 600 750" width="600" height="750">
<defs>
  <linearGradient id="gold" x1="0" y1="0" x2="1" y2="1">
    <stop offset="0" stop-color="#8a6420"/>
    <stop offset=".28" stop-color="#e9c87a"/>
    <stop offset=".5" stop-color="#b8893b"/>
    <stop offset=".72" stop-color="#f7e4b0"/>
    <stop offset="1" stop-color="#9c7228"/>
  </linearGradient>
  <linearGradient id="goldV" x1="0" y1="0" x2="0" y2="1">
    <stop offset="0" stop-color="#f7e4b0"/>
    <stop offset=".45" stop-color="#c99a45"/>
    <stop offset="1" stop-color="#8a6420"/>
  </linearGradient>
  <linearGradient id="emerald" x1="0" y1="0" x2="1" y2="1">
    <stop offset="0" stop-color="#5fe0ae"/>
    <stop offset=".45" stop-color="#11805f"/>
    <stop offset="1" stop-color="#063d2e"/>
  </linearGradient>
  <linearGradient id="sapphire" x1="0" y1="0" x2="1" y2="1">
    <stop offset="0" stop-color="#9dbcff"/>
    <stop offset=".5" stop-color="#2a4fb8"/>
    <stop offset="1" stop-color="#0f1f5c"/>
  </linearGradient>
  <linearGradient id="ruby" x1="0" y1="0" x2="1" y2="1">
    <stop offset="0" stop-color="#ff9aa8"/>
    <stop offset=".5" stop-color="#c0183a"/>
    <stop offset="1" stop-color="#5e0619"/>
  </linearGradient>
  <radialGradient id="crystal" cx=".35" cy=".3" r=".8">
    <stop offset="0" stop-color="#ffffff"/>
    <stop offset=".4" stop-color="#dce7f5"/>
    <stop offset="1" stop-color="#6f86a6"/>
  </radialGradient>
  <radialGradient id="pearl" cx=".35" cy=".3" r=".85">
    <stop offset="0" stop-color="#ffffff"/>
    <stop offset=".55" stop-color="#f1e9df"/>
    <stop offset="1" stop-color="#c9b9a6"/>
  </radialGradient>
  <radialGradient id="glow" cx=".5" cy=".42" r=".6">
    <stop offset="0" stop-color="#ffffff" stop-opacity=".85"/>
    <stop offset="1" stop-color="#ffffff" stop-opacity="0"/>
  </radialGradient>
  <filter id="soft" x="-50%" y="-50%" width="200%" height="200%"><feGaussianBlur stdDeviation="14"/></filter>
  <filter id="drop" x="-20%" y="-20%" width="140%" height="140%">
    <feDropShadow dx="0" dy="10" stdDeviation="10" flood-color="#5b4323" flood-opacity=".22"/>
  </filter>
</defs>
<rect width="600" height="750" fill="#f5ebe6"/>
<rect width="600" height="750" fill="url(#glow)"/>
<rect y="540" width="600" height="210.00000000000003" fill="#ead8cf" opacity=".55"/><g transform="translate(300 380) scale(1.14) translate(-300 -380)">
    <ellipse cx="300" cy="620" rx="210" ry="16" fill="#6b5130" opacity=".18" filter="url(#soft)"/>
    <path d="M110 360C110 220 490 220 490 360C490 470 110 470 110 360Z" fill="none" stroke="#8a6420" stroke-width="9" stroke-linecap="round" opacity=".35"/>
   <path d="M110 360C110 220 490 220 490 360C490 470 110 470 110 360Z" fill="none" stroke="url(#gold)" stroke-width="7" stroke-linecap="round" stroke-dasharray="11.200000000000001 4.8999999999999995"/>
    <g filter="url(#drop)">
      <path transform="translate(220 470)" d="M0 12C0-6 22-10 30 6 38-10 60-6 60 12 60 34 30 52 30 52S0 34 0 12Z" fill="url(#gold)"/>
      <path transform="translate(330 480)" d="M28 0L36 20 58 22 41 36 46 58 28 46 10 58 15 36-2 22 20 20Z" fill="url(#gold)"/>
      <circle cx="420" cy="450" r="20" fill="url(#gold)"/><circle cx="420" cy="450" r="14" fill="url(#ruby)"/>
      <circle cx="160" cy="440" r="20" fill="url(#pearl)"/>
    </g>
    <path transform="translate(360 250) scale(1)" d="M0-18C2-6 6-2 18 0 6 2 2 6 0 18-2 6-6 2-18 0-6-2-2-6 0-18Z" fill="#fff" opacity="0.9"/></g></svg>
