<svg xmlns="http://www.w3.org/2000/svg" viewBox="0 0 600 750" width="600" height="750">
<defs>
  <linearGradient id="gold" x1="0" y1="0" x2="1" y2="1">
    <stop offset="0" stop-color="#8a6420"/>
    <stop offset=".28" stop-color="#e9c87a"/>
    <stop offset=".5" stop-color="#b8893b"/>
    <stop offset=".72" stop-color="#f7e4b0"/>
    <stop offset="1" stop-color="#9c7228"/>
  </linearGradient>
  <linearGradient id="goldV" x1="0" y1="0" x2="0" y2="1">
    <stop offset="0" stop-color="#f7e4b0"/>
    <stop offset=".45" stop-color="#c99a45"/>
    <stop offset="1" stop-color="#8a6420"/>
  </linearGradient>
  <linearGradient id="emerald" x1="0" y1="0" x2="1" y2="1">
    <stop offset="0" stop-color="#5fe0ae"/>
    <stop offset=".45" stop-color="#11805f"/>
    <stop offset="1" stop-color="#063d2e"/>
  </linearGradient>
  <linearGradient id="sapphire" x1="0" y1="0" x2="1" y2="1">
    <stop offset="0" stop-color="#9dbcff"/>
    <stop offset=".5" stop-color="#2a4fb8"/>
    <stop offset="1" stop-color="#0f1f5c"/>
  </linearGradient>
  <linearGradient id="ruby" x1="0" y1="0" x2="1" y2="1">
    <stop offset="0" stop-color="#ff9aa8"/>
    <stop offset=".5" stop-color="#c0183a"/>
    <stop offset="1" stop-color="#5e0619"/>
  </linearGradient>
  <radialGradient id="crystal" cx=".35" cy=".3" r=".8">
    <stop offset="0" stop-color="#ffffff"/>
    <stop offset=".4" stop-color="#dce7f5"/>
    <stop offset="1" stop-color="#6f86a6"/>
  </radialGradient>
  <radialGradient id="pearl" cx=".35" cy=".3" r=".85">
    <stop offset="0" stop-color="#ffffff"/>
    <stop offset=".55" stop-color="#f1e9df"/>
    <stop offset="1" stop-color="#c9b9a6"/>
  </radialGradient>
  <radialGradient id="glow" cx=".5" cy=".42" r=".6">
    <stop offset="0" stop-color="#ffffff" stop-opacity=".85"/>
    <stop offset="1" stop-color="#ffffff" stop-opacity="0"/>
  </radialGradient>
  <filter id="soft" x="-50%" y="-50%" width="200%" height="200%"><feGaussianBlur stdDeviation="14"/></filter>
  <filter id="drop" x="-20%" y="-20%" width="140%" height="140%">
    <feDropShadow dx="0" dy="10" stdDeviation="10" flood-color="#5b4323" flood-opacity=".22"/>
  </filter>
</defs>
<rect width="600" height="750" fill="#fdf8f8"/>
<rect width="600" height="750" fill="url(#glow)"/>
<rect y="540" width="600" height="210.00000000000003" fill="#f3e4e7" opacity=".55"/><g transform="translate(300 380) scale(1.14) translate(-300 -380)">
    <ellipse cx="300" cy="620" rx="150" ry="16" fill="#6b5130" opacity=".18" filter="url(#soft)"/>
    <g filter="url(#drop)">
      <path d="M220 470C170 360 220 230 330 220C420 212 470 300 440 380" fill="none" stroke="url(#gold)" stroke-width="22" stroke-linecap="round"/>
      <path d="M250 440C215 360 250 270 330 262C392 256 425 312 408 364" fill="none" stroke="url(#gold)" stroke-width="12" stroke-linecap="round"/>
    </g>
    <circle cx="208" cy="420" r="13" fill="url(#gold)"/><circle cx="208" cy="420" r="9.5" fill="url(#crystal)"/><circle cx="205" cy="360" r="13" fill="url(#gold)"/><circle cx="205" cy="360" r="9.5" fill="url(#crystal)"/><circle cx="222" cy="302" r="13" fill="url(#gold)"/><circle cx="222" cy="302" r="9.5" fill="url(#crystal)"/><circle cx="258" cy="256" r="13" fill="url(#gold)"/><circle cx="258" cy="256" r="9.5" fill="url(#crystal)"/><circle cx="305" cy="228" r="13" fill="url(#gold)"/><circle cx="305" cy="228" r="9.5" fill="url(#crystal)"/><circle cx="360" cy="222" r="13" fill="url(#gold)"/><circle cx="360" cy="222" r="9.5" fill="url(#crystal)"/><circle cx="410" cy="246" r="13" fill="url(#gold)"/><circle cx="410" cy="246" r="9.5" fill="url(#crystal)"/><circle cx="440" cy="300" r="13" fill="url(#gold)"/><circle cx="440" cy="300" r="9.5" fill="url(#crystal)"/>
    <path transform="translate(460 220) scale(1)" d="M0-18C2-6 6-2 18 0 6 2 2 6 0 18-2 6-6 2-18 0-6-2-2-6 0-18Z" fill="#fff" opacity="0.9"/><path transform="translate(190 250) scale(0.6)" d="M0-18C2-6 6-2 18 0 6 2 2 6 0 18-2 6-6 2-18 0-6-2-2-6 0-18Z" fill="#fff" opacity="0.9"/></g></svg>
