<svg xmlns="http://www.w3.org/2000/svg" viewBox="0 0 600 750" width="600" height="750">
<defs>
  <linearGradient id="gold" x1="0" y1="0" x2="1" y2="1">
    <stop offset="0" stop-color="#8a6420"/>
    <stop offset=".28" stop-color="#e9c87a"/>
    <stop offset=".5" stop-color="#b8893b"/>
    <stop offset=".72" stop-color="#f7e4b0"/>
    <stop offset="1" stop-color="#9c7228"/>
  </linearGradient>
  <linearGradient id="goldV" x1="0" y1="0" x2="0" y2="1">
    <stop offset="0" stop-color="#f7e4b0"/>
    <stop offset=".45" stop-color="#c99a45"/>
    <stop offset="1" stop-color="#8a6420"/>
  </linearGradient>
  <linearGradient id="emerald" x1="0" y1="0" x2="1" y2="1">
    <stop offset="0" stop-color="#5fe0ae"/>
    <stop offset=".45" stop-color="#11805f"/>
    <stop offset="1" stop-color="#063d2e"/>
  </linearGradient>
  <linearGradient id="sapphire" x1="0" y1="0" x2="1" y2="1">
    <stop offset="0" stop-color="#9dbcff"/>
    <stop offset=".5" stop-color="#2a4fb8"/>
    <stop offset="1" stop-color="#0f1f5c"/>
  </linearGradient>
  <linearGradient id="ruby" x1="0" y1="0" x2="1" y2="1">
    <stop offset="0" stop-color="#ff9aa8"/>
    <stop offset=".5" stop-color="#c0183a"/>
    <stop offset="1" stop-color="#5e0619"/>
  </linearGradient>
  <radialGradient id="crystal" cx=".35" cy=".3" r=".8">
    <stop offset="0" stop-color="#ffffff"/>
    <stop offset=".4" stop-color="#dce7f5"/>
    <stop offset="1" stop-color="#6f86a6"/>
  </radialGradient>
  <radialGradient id="pearl" cx=".35" cy=".3" r=".85">
    <stop offset="0" stop-color="#ffffff"/>
    <stop offset=".55" stop-color="#f1e9df"/>
    <stop offset="1" stop-color="#c9b9a6"/>
  </radialGradient>
  <radialGradient id="glow" cx=".5" cy=".42" r=".6">
    <stop offset="0" stop-color="#ffffff" stop-opacity=".85"/>
    <stop offset="1" stop-color="#ffffff" stop-opacity="0"/>
  </radialGradient>
  <filter id="soft" x="-50%" y="-50%" width="200%" height="200%"><feGaussianBlur stdDeviation="14"/></filter>
  <filter id="drop" x="-20%" y="-20%" width="140%" height="140%">
    <feDropShadow dx="0" dy="10" stdDeviation="10" flood-color="#5b4323" flood-opacity=".22"/>
  </filter>
</defs>
<rect width="600" height="750" fill="#eef0f3"/>
<rect width="600" height="750" fill="url(#glow)"/>
<rect y="540" width="600" height="210.00000000000003" fill="#dde2e8" opacity=".55"/><g transform="translate(300 380) scale(1.14) translate(-300 -380)"><ellipse cx="300" cy="600" rx="220" ry="16" fill="#6b5130" opacity=".18" filter="url(#soft)"/><ellipse cx="300" cy="380" rx="200" ry="150" fill="none" stroke="url(#gold)" stroke-width="10"/><circle cx="500.0" cy="380.0" r="21.0" fill="url(#gold)"/><circle cx="500.0" cy="380.0" r="17.0" fill="url(#crystal)"/><path d="M491.5 380.0L508.5 380.0M500.0 371.5L500.0 388.5" stroke="#fff" stroke-width="1.5" opacity=".8"/><circle cx="495.6" cy="411.2" r="22.0" fill="url(#gold)"/><circle cx="495.6" cy="411.2" r="18.0" fill="url(#crystal)"/><path d="M486.6 411.2L504.6 411.2M495.6 402.2L495.6 420.2" stroke="#fff" stroke-width="1.5" opacity=".8"/><circle cx="482.7" cy="441.0" r="23.0" fill="url(#gold)"/><circle cx="482.7" cy="441.0" r="19.0" fill="url(#crystal)"/><path d="M473.2 441.0L492.2 441.0M482.7 431.5L482.7 450.5" stroke="#fff" stroke-width="1.5" opacity=".8"/><circle cx="461.8" cy="468.2" r="23.9" fill="url(#gold)"/><circle cx="461.8" cy="468.2" r="19.9" fill="url(#crystal)"/><path d="M451.8 468.2L471.8 468.2M461.8 458.2L461.8 478.1" stroke="#fff" stroke-width="1.5" opacity=".8"/><circle cx="433.8" cy="491.5" r="24.7" fill="url(#gold)"/><circle cx="433.8" cy="491.5" r="20.7" fill="url(#crystal)"/><path d="M423.5 491.5L444.2 491.5M433.8 481.1L433.8 501.8" stroke="#fff" stroke-width="1.5" opacity=".8"/><circle cx="400.0" cy="509.9" r="25.3" fill="url(#gold)"/><circle cx="400.0" cy="509.9" r="21.3" fill="url(#crystal)"/><path d="M389.3 509.9L410.7 509.9M400.0 499.2L400.0 520.6" stroke="#fff" stroke-width="1.5" opacity=".8"/><circle cx="361.8" cy="522.7" r="25.8" fill="url(#gold)"/><circle cx="361.8" cy="522.7" r="21.8" fill="url(#crystal)"/><path d="M350.9 522.7L372.7 522.7M361.8 511.8L361.8 533.5" stroke="#fff" stroke-width="1.5" opacity=".8"/><circle cx="320.9" cy="529.2" r="26.0" fill="url(#gold)"/><circle cx="320.9" cy="529.2" r="22.0" fill="url(#crystal)"/><path d="M309.9 529.2L331.9 529.2M320.9 518.2L320.9 540.2" stroke="#fff" stroke-width="1.5" opacity=".8"/><circle cx="279.1" cy="529.2" r="26.0" fill="url(#gold)"/><circle cx="279.1" cy="529.2" r="22.0" fill="url(#crystal)"/><path d="M268.1 529.2L290.1 529.2M279.1 518.2L279.1 540.2" stroke="#fff" stroke-width="1.5" opacity=".8"/><circle cx="238.2" cy="522.7" r="25.8" fill="url(#gold)"/><circle cx="238.2" cy="522.7" r="21.8" fill="url(#crystal)"/><path d="M227.3 522.7L249.1 522.7M238.2 511.8L238.2 533.5" stroke="#fff" stroke-width="1.5" opacity=".8"/><circle cx="200.0" cy="509.9" r="25.3" fill="url(#gold)"/><circle cx="200.0" cy="509.9" r="21.3" fill="url(#crystal)"/><path d="M189.3 509.9L210.7 509.9M200.0 499.2L200.0 520.6" stroke="#fff" stroke-width="1.5" opacity=".8"/><circle cx="166.2" cy="491.5" r="24.7" fill="url(#gold)"/><circle cx="166.2" cy="491.5" r="20.7" fill="url(#crystal)"/><path d="M155.8 491.5L176.5 491.5M166.2 481.1L166.2 501.8" stroke="#fff" stroke-width="1.5" opacity=".8"/><circle cx="138.2" cy="468.2" r="23.9" fill="url(#gold)"/><circle cx="138.2" cy="468.2" r="19.9" fill="url(#crystal)"/><path d="M128.2 468.2L148.2 468.2M138.2 458.2L138.2 478.1" stroke="#fff" stroke-width="1.5" opacity=".8"/><circle cx="117.3" cy="441.0" r="23.0" fill="url(#gold)"/><circle cx="117.3" cy="441.0" r="19.0" fill="url(#crystal)"/><path d="M107.8 441.0L126.8 441.0M117.3 431.5L117.3 450.5" stroke="#fff" stroke-width="1.5" opacity=".8"/><circle cx="104.4" cy="411.2" r="22.0" fill="url(#gold)"/><circle cx="104.4" cy="411.2" r="18.0" fill="url(#crystal)"/><path d="M95.4 411.2L113.4 411.2M104.4 402.2L104.4 420.2" stroke="#fff" stroke-width="1.5" opacity=".8"/><circle cx="100.0" cy="380.0" r="21.0" fill="url(#gold)"/><circle cx="100.0" cy="380.0" r="17.0" fill="url(#crystal)"/><path d="M91.5 380.0L108.5 380.0M100.0 371.5L100.0 388.5" stroke="#fff" stroke-width="1.5" opacity=".8"/><circle cx="104.4" cy="348.8" r="20.0" fill="url(#gold)"/><circle cx="104.4" cy="348.8" r="16.0" fill="url(#crystal)"/><path d="M96.4 348.8L112.4 348.8M104.4 340.8L104.4 356.8" stroke="#fff" stroke-width="1.5" opacity=".8"/><circle cx="117.3" cy="319.0" r="19.0" fill="url(#gold)"/><circle cx="117.3" cy="319.0" r="15.0" fill="url(#crystal)"/><path d="M109.8 319.0L124.8 319.0M117.3 311.5L117.3 326.5" stroke="#fff" stroke-width="1.5" opacity=".8"/><circle cx="138.2" cy="291.8" r="18.1" fill="url(#gold)"/><circle cx="138.2" cy="291.8" r="14.1" fill="url(#crystal)"/><path d="M131.2 291.8L145.2 291.8M138.2 284.8L138.2 298.9" stroke="#fff" stroke-width="1.5" opacity=".8"/><circle cx="166.2" cy="268.5" r="17.3" fill="url(#gold)"/><circle cx="166.2" cy="268.5" r="13.3" fill="url(#crystal)"/><path d="M159.5 268.5L172.8 268.5M166.2 261.9L166.2 275.2" stroke="#fff" stroke-width="1.5" opacity=".8"/><circle cx="200.0" cy="250.1" r="16.7" fill="url(#gold)"/><circle cx="200.0" cy="250.1" r="12.7" fill="url(#crystal)"/><path d="M193.7 250.1L206.3 250.1M200.0 243.8L200.0 256.4" stroke="#fff" stroke-width="1.5" opacity=".8"/><circle cx="238.2" cy="237.3" r="16.2" fill="url(#gold)"/><circle cx="238.2" cy="237.3" r="12.2" fill="url(#crystal)"/><path d="M232.1 237.3L244.3 237.3M238.2 231.2L238.2 243.5" stroke="#fff" stroke-width="1.5" opacity=".8"/><circle cx="279.1" cy="230.8" r="16.0" fill="url(#gold)"/><circle cx="279.1" cy="230.8" r="12.0" fill="url(#crystal)"/><path d="M273.1 230.8L285.1 230.8M279.1 224.8L279.1 236.8" stroke="#fff" stroke-width="1.5" opacity=".8"/><circle cx="320.9" cy="230.8" r="16.0" fill="url(#gold)"/><circle cx="320.9" cy="230.8" r="12.0" fill="url(#crystal)"/><path d="M314.9 230.8L326.9 230.8M320.9 224.8L320.9 236.8" stroke="#fff" stroke-width="1.5" opacity=".8"/><circle cx="361.8" cy="237.3" r="16.2" fill="url(#gold)"/><circle cx="361.8" cy="237.3" r="12.2" fill="url(#crystal)"/><path d="M355.7 237.3L367.9 237.3M361.8 231.2L361.8 243.5" stroke="#fff" stroke-width="1.5" opacity=".8"/><circle cx="400.0" cy="250.1" r="16.7" fill="url(#gold)"/><circle cx="400.0" cy="250.1" r="12.7" fill="url(#crystal)"/><path d="M393.7 250.1L406.3 250.1M400.0 243.8L400.0 256.4" stroke="#fff" stroke-width="1.5" opacity=".8"/><circle cx="433.8" cy="268.5" r="17.3" fill="url(#gold)"/><circle cx="433.8" cy="268.5" r="13.3" fill="url(#crystal)"/><path d="M427.2 268.5L440.5 268.5M433.8 261.9L433.8 275.2" stroke="#fff" stroke-width="1.5" opacity=".8"/><circle cx="461.8" cy="291.8" r="18.1" fill="url(#gold)"/><circle cx="461.8" cy="291.8" r="14.1" fill="url(#crystal)"/><path d="M454.8 291.8L468.8 291.8M461.8 284.8L461.8 298.9" stroke="#fff" stroke-width="1.5" opacity=".8"/><circle cx="482.7" cy="319.0" r="19.0" fill="url(#gold)"/><circle cx="482.7" cy="319.0" r="15.0" fill="url(#crystal)"/><path d="M475.2 319.0L490.2 319.0M482.7 311.5L482.7 326.5" stroke="#fff" stroke-width="1.5" opacity=".8"/><circle cx="495.6" cy="348.8" r="20.0" fill="url(#gold)"/><circle cx="495.6" cy="348.8" r="16.0" fill="url(#crystal)"/><path d="M487.6 348.8L503.6 348.8M495.6 340.8L495.6 356.8" stroke="#fff" stroke-width="1.5" opacity=".8"/><path transform="translate(470 270) scale(1.2)" d="M0-18C2-6 6-2 18 0 6 2 2 6 0 18-2 6-6 2-18 0-6-2-2-6 0-18Z" fill="#fff" opacity="0.9"/><path transform="translate(160 470) scale(0.8)" d="M0-18C2-6 6-2 18 0 6 2 2 6 0 18-2 6-6 2-18 0-6-2-2-6 0-18Z" fill="#fff" opacity="0.9"/></g></svg>
